<svg xmlns="http://www.w3.org/2000/svg" width="136" height="39" fill="none"><g clip-path="url(#prefix__clip0_545_57)" fill-rule="evenodd" clip-rule="evenodd" fill="#F71E2E"><path d="M31.674 27.045c-4.58-.283-8.758-2.725-11.18-6.536l-.552-.87.69.493a14.428 14.428 0 007.568 2.691c3.6.225 7.29-.87 10.323-3.234a19.16 19.16 0 00-1.59-7.989l-.054.113a14.451 14.451 0 01-3.341 4.285c-3.435 3.039-8.117 4.267-12.52 3.278l-1.008-.225.832-.132c6.468-1.057 11.443-6.39 12.26-13.053a19.206 19.206 0 00-6.766-4.516l.04.118c.562 1.732.787 3.542.674 5.391-.288 4.584-2.73 8.763-6.54 11.184l-.872.553.494-.69C23.958 12.588 23.71 5.294 19.58.01A19.115 19.115 0 0011.6 1.6l.113.054a14.45 14.45 0 014.285 3.341c3.039 3.435 4.267 8.122 3.283 12.53l-.225 1.003-.137-.832C17.862 11.228 12.53 6.248 5.871 5.43a19.183 19.183 0 00-4.516 6.77l.118-.038a14.52 14.52 0 015.396-.676c4.574.29 8.753 2.73 11.174 6.542l.553.87-.69-.494C12.588 14.58 5.303 14.83.01 18.958a19.118 19.118 0 001.595 7.98l.058-.113A14.355 14.355 0 015 22.54c3.435-3.034 8.117-4.262 12.525-3.278l1.008.22-.837.137c-6.468 1.056-11.443 6.39-12.26 13.048a19.207 19.207 0 006.766 4.515l-.04-.117a14.403 14.403 0 01-.67-5.391c.284-4.58 2.725-8.758 6.537-11.18l.87-.552-.494.69c-3.826 5.317-3.571 12.602.553 17.891a19.115 19.115 0 007.98-1.59l-.113-.054a14.513 14.513 0 01-4.285-3.341c-3.034-3.435-4.262-8.117-3.278-12.525l.225-1.008.132.837c1.056 6.468 6.39 11.443 13.048 12.26a19.285 19.285 0 004.52-6.766l-.122.04a14.401 14.401 0 01-5.391.67zM60.916 15.739l-2.98 8.322-3.018-8.41L52.1 8.787h-5.676l8.738 20.91h5.548L69.345 8.93l.06-.142h-5.676l-2.813 6.952zM72.795 29.614h5.215V8.743h-5.215v20.87zM91.929 16.762c-2.47-.162-3.67-.867-3.67-2.153 0-1.238 1.307-1.943 3.582-1.943 2.109 0 3.625.558 4.931 1.81l.084.079 2.92-3.508-.073-.064c-2.177-1.947-4.481-2.74-7.945-2.74-2.104 0-4.183.524-5.695 1.444-1.918 1.16-2.93 2.92-2.93 5.093 0 5.078 5.298 6.243 8.458 6.487 2.858.167 3.92.724 3.92 2.065 0 .5-.216.969-.612 1.36-.656.641-1.781 1.023-2.93.998-2.154-.039-5.436-1.194-6.894-2.842l-.088-.103-2.584 3.811.06.059c3.072 3.258 6.34 3.708 9.422 3.708 2.735 0 5.015-.71 6.58-2.045a6.24 6.24 0 002.217-4.819c0-5.43-4.673-6.433-8.753-6.697zM104.904 29.614h5.21V8.743h-5.21v20.87zM120.232 16.718c.724-2.417 2.73-3.802 5.518-3.802 2.921 0 4.785 1.39 5.133 3.802h-10.651zm13.175-5.514c-1.791-1.967-4.496-3.004-7.818-3.004-6.487 0-10.847 4.369-10.847 10.876 0 6.834 4.296 11.081 11.214 11.081 3.444 0 6.8-1.292 8.767-3.37l.073-.074-3.346-3.361-.073.078c-1.165 1.223-3.616 1.884-5.338 1.884-3.263 0-5.514-1.596-5.905-4.174h15.758l.01-.093c.387-4.222-.474-7.627-2.495-9.843z"/></g><defs><clipPath id="prefix__clip0_545_57"><path fill="#fff" d="M0 0h136v38.533H0z"/></clipPath></defs></svg>